<?xml version="1.0" encoding="UTF-8"?>
<svg width="20px" height="20px" viewBox="0 0 20 20" version="1.1" xmlns="http://www.w3.org/2000/svg" xmlns:xlink="http://www.w3.org/1999/xlink">
    <!-- Generator: Sketch 53.2 (72643) - https://sketchapp.com -->
    <title>Shape</title>
    <desc>Created with Sketch.</desc>
    <g id="Explore" stroke="none" stroke-width="1" fill="none" fill-rule="evenodd">
        <g id="Exploration---Connected-Filters-Selected--3-UI-Copy-2" transform="translate(-281.000000, -304.000000)" fill="#000000" fill-rule="nonzero">
            <g id="hiking" transform="translate(182.000000, 294.000000)">
                <g id="settings-outline" transform="translate(99.000000, 10.000000)">
                    <path d="M17.1593316,10.97 L19.2693316,12.63 C19.4593316,12.78 19.5093316,13.05 19.3893316,13.27 L17.3893316,16.73 C17.2693316,16.95 16.9993316,17.03 16.7793316,16.95 L14.2893316,15.94 C13.7693316,16.34 13.2293316,16.67 12.5993316,16.93 L12.2293316,19.58 C12.1893316,19.82 11.9793316,20 11.7293316,20 L7.7293316,20 C7.4793316,20 7.2693316,19.82 7.2293316,19.58 L6.8593316,16.93 C6.2293316,16.68 5.6893316,16.34 5.1693316,15.94 L2.6793316,16.95 C2.4593316,17.03 2.1893316,16.95 2.0693316,16.73 L0.0693316039,13.27 C-0.0606683961,13.05 -0.000668396068,12.78 0.189331604,12.63 L2.2993316,10.97 L2.2293316,10 L2.2993316,9 L0.189331604,7.37 C-0.000668396068,7.22 -0.0606683961,6.95 0.0693316039,6.73 L2.0693316,3.27 C2.1893316,3.05 2.4593316,2.96 2.6793316,3.05 L5.1693316,4.05 C5.6893316,3.66 6.2293316,3.32 6.8593316,3.07 L7.2293316,0.42 C7.2693316,0.18 7.4793316,0 7.7293316,0 L11.7293316,0 C11.9793316,0 12.1893316,0.18 12.2293316,0.42 L12.5993316,3.07 C13.2293316,3.32 13.7693316,3.66 14.2893316,4.05 L16.7793316,3.05 C16.9993316,2.96 17.2693316,3.05 17.3893316,3.27 L19.3893316,6.73 C19.5093316,6.95 19.4593316,7.22 19.2693316,7.37 L17.1593316,9 L17.2293316,10 L17.1593316,10.97 L17.1593316,10.97 Z M4.2293316,10 C4.2293316,10.58 4.3193316,11.13 4.4793316,11.66 L2.4093316,13.36 L3.1593316,14.66 L5.6793316,13.72 C6.4193316,14.53 7.4093316,15.12 8.5293316,15.37 L8.9693316,18 L10.4693316,18 L10.9093316,15.37 C12.0293316,15.13 13.0293316,14.54 13.7793316,13.73 L16.2893316,14.67 L17.0393316,13.37 L14.9693316,11.67 C15.1393316,11.14 15.2293316,10.58 15.2293316,10 C15.2293316,9.43 15.1393316,8.87 14.9793316,8.35 L17.0393316,6.66 L16.2893316,5.36 L13.7893316,6.29 C13.0393316,5.47 12.0393316,4.88 10.9193316,4.63 L10.4793316,2 L8.9793316,2 L8.5393316,4.63 C7.4193316,4.88 6.4193316,5.47 5.6693316,6.29 L3.1693316,5.35 L2.4193316,6.65 L4.4793316,8.35 C4.3193316,8.87 4.2293316,9.43 4.2293316,10 L4.2293316,10 Z M9.7293316,6.5 C11.6593316,6.5 13.2293316,8.07 13.2293316,10 C13.2293316,11.93 11.6593316,13.5 9.7293316,13.5 C7.7993316,13.5 6.2293316,11.93 6.2293316,10 C6.2293316,8.07 7.7993316,6.5 9.7293316,6.5 L9.7293316,6.5 Z M9.7293316,8.5 C8.8993316,8.5 8.2293316,9.17 8.2293316,10 C8.2293316,10.83 8.8993316,11.5 9.7293316,11.5 C10.5593316,11.5 11.2293316,10.83 11.2293316,10 C11.2293316,9.17 10.5593316,8.5 9.7293316,8.5 Z" id="Shape"></path>
                </g>
            </g>
        </g>
    </g>
</svg>