<?xml version="1.0" encoding="UTF-8"?>
<svg width="18px" height="18px" viewBox="0 0 18 18" version="1.1" xmlns="http://www.w3.org/2000/svg" xmlns:xlink="http://www.w3.org/1999/xlink">
    <!-- Generator: Sketch 53.2 (72643) - https://sketchapp.com -->
    <title>Shape</title>
    <desc>Created with Sketch.</desc>
    <g id="Explore" stroke="none" stroke-width="1" fill="none" fill-rule="evenodd">
        <g id="Exploration---Connected-Filters-Selected--3-UI-Copy-2" transform="translate(-237.000000, -466.000000)" fill="#000000" fill-rule="nonzero">
            <g id="Tropi007-Copy-2" transform="translate(0.000000, 434.000000)">
                <g id="hiking" transform="translate(182.000000, 21.000000)">
                    <g id="active" transform="translate(45.000000, 0.000000)">
                        <g id="information-outline" transform="translate(10.000000, 11.000000)">
                            <path d="M8.1,6.3 L9.9,6.3 L9.9,4.5 L8.1,4.5 L8.1,6.3 Z M9,16.2 C5.031,16.2 1.8,12.969 1.8,9 C1.8,5.031 5.031,1.8 9,1.8 C12.969,1.8 16.2,5.031 16.2,9 C16.2,12.969 12.969,16.2 9,16.2 L9,16.2 Z M9,0 C4.032,0 0,4.032 0,9 C0,13.968 4.032,18 9,18 C13.968,18 18,13.968 18,9 C18,4.032 13.968,0 9,0 L9,0 Z M8.1,13.5 L9.9,13.5 L9.9,8.1 L8.1,8.1 L8.1,13.5 Z" id="Shape"></path>
                        </g>
                    </g>
                </g>
            </g>
        </g>
    </g>
</svg>