<?xml version="1.0" encoding="UTF-8"?>
<svg width="41px" height="28px" viewBox="0 0 41 28" version="1.1" xmlns="http://www.w3.org/2000/svg" xmlns:xlink="http://www.w3.org/1999/xlink">
    <!-- Generator: Sketch 51.3 (57544) - http://www.bohemiancoding.com/sketch -->
    <title>outline-person_outline-24px</title>
    <desc>Created with Sketch.</desc>
    <defs></defs>
    <g id="HP-" stroke="none" stroke-width="1" fill="none" fill-rule="evenodd">
        <g id="Design-Copy-2" transform="translate(-1793.000000, -39.000000)">
            <g id="Header" transform="translate(0.000000, -4.000000)">
                <g id="Menu-over-" transform="translate(0.000000, 4.000000)">
                    <g id="outline-person_outline-24px" transform="translate(1793.000000, 39.000000)">
                        <g id="Outline" fill="#00338D" fill-rule="nonzero">
                            <path d="M14,3.325 C16.03,3.325 17.675,4.97 17.675,7 C17.675,9.03 16.03,10.675 14,10.675 C11.97,10.675 10.325,9.03 10.325,7 C10.325,4.97 11.97,3.325 14,3.325 Z M14,19.075 C19.1975,19.075 24.675,21.63 24.675,22.75 L24.675,24.675 L3.325,24.675 L3.325,22.75 C3.325,21.63 8.8025,19.075 14,19.075 Z M14,0 C10.1325,0 7,3.1325 7,7 C7,10.8675 10.1325,14 14,14 C17.8675,14 21,10.8675 21,7 C21,3.1325 17.8675,0 14,0 Z M14,15.75 C9.3275,15.75 0,18.095 0,22.75 L0,28 L28,28 L28,22.75 C28,18.095 18.6725,15.75 14,15.75 Z" id="Shape"></path>
                        </g>
                        <g id="outline-expand_more-24px">
                            <g id="Bounding_Boxes" opacity="0.87">
                                <polygon id="Shape" points="24 24 0 24 0 0 24 0"></polygon>
                            </g>
                            <g id="Outline_1_" transform="translate(29.000000, 0.000000)" fill="#00338D" fill-rule="nonzero">
                                <polygon id="Shape" points="10.59 0.59 6 5.17 1.41 0.59 0 2 6 8 12 2"></polygon>
                            </g>
                        </g>
                    </g>
                </g>
            </g>
        </g>
    </g>
</svg>